# xmcd
#
# Track frame offsets:
#	150
#	13170
#	25965
#	44407
#	61335
#	76675
#	91717
#	106270
#	119470
#	136817
#	152605
#	166600
#
# Disc length: 2394 seconds
#
# Revision: 0
# Processed by: cddbd v1.5.1PL0 Copyright (c) Steve Scherf et al.
# Submitted via: dBpowerAMP V4.0
#
DISCID=8409580c
DTITLE=Continental Divide - Feel Good Day
DYEAR=1998
DGENRE=Bluegrass
TTITLE0=Feel Good Day
TTITLE1=If a Train left for Memphis
TTITLE2=When I left Old East Virginia
TTITLE3=Cast the First Stone
TTITLE4=Kick Me When I'm Down
TTITLE5=Your'e Gonna Miss Me When I'm Gone
TTITLE6=Lonesome Highway
TTITLE7=Where My Wheels Meet The Road
TTITLE8=Where the Dirt Road Ends
TTITLE9=Claire May
TTITLE10=Silver Eagle
TTITLE11=I Dreamed I Drove the Nails
EXTD=
EXTT0=
EXTT1=
EXTT2=
EXTT3=
EXTT4=
EXTT5=
EXTT6=
EXTT7=
EXTT8=
EXTT9=
EXTT10=
EXTT11=
PLAYORDER=
